<svg width="411" height="370" viewBox="0 0 411 370" fill="none" xmlns="http://www.w3.org/2000/svg">
<path d="M69.3319 20.7905C68.8958 21.226 68.4598 21.6615 68.4598 22.0969C64.9714 29.0642 61.919 36.0316 58.4306 42.9989C54.5062 51.2726 50.5817 59.5463 46.6573 67.3845C45.7852 69.1264 44.9131 71.3037 44.041 73.0455C43.605 73.4809 43.6049 73.9164 43.1689 74.7873C41.8608 75.2228 40.5526 74.7873 39.6805 74.7873C38.3724 74.7873 37.5003 74.7873 36.1921 74.7873C27.4711 57.369 18.7501 39.5152 10.0291 21.6615C6.97679 21.6615 3.48839 21.6615 0.436047 21.6615C0.436047 21.226 0 21.226 0 20.7905C0 14.6941 0 8.59772 0 2.50131V2.06585C1.30815 1.63039 7.84889 1.63039 11.3373 2.06585C11.3373 2.50131 11.7733 2.50131 11.7733 2.93677C13.9536 6.85589 15.6978 11.2105 17.878 15.1296C22.6746 25.5806 27.9072 36.0316 32.7037 46.0471C33.5758 48.2244 34.884 50.4017 35.7561 52.1435C36.6282 54.3208 37.5003 56.0626 38.8084 58.2399C38.8084 58.6754 39.2445 59.1108 39.6805 59.5463C40.5526 58.2399 40.9887 56.4981 41.8608 55.1917C42.7329 53.8853 43.1689 52.1435 44.041 50.8371C44.9131 49.5308 45.3492 47.7889 46.2212 46.4826C47.0933 45.1762 47.5294 43.4344 48.4015 42.128C49.2736 40.8216 49.7096 39.0798 50.5817 37.7734C51.4538 36.467 51.8899 34.7252 52.762 33.4188C53.6341 31.677 54.0701 30.3706 54.9422 28.6288C55.8143 27.3224 56.2504 25.5806 57.1225 24.2742C57.9946 22.9678 58.4306 21.226 59.3027 19.9196C60.1748 18.6133 60.6109 16.8714 61.483 15.565C62.3551 14.2587 62.7911 12.5168 63.6632 11.2105C64.5353 9.90409 64.9714 8.16226 65.8435 6.85589C66.7156 5.54951 67.1516 3.80768 68.0237 2.50131C71.9482 2.50131 75.8726 2.50131 79.7971 2.50131C79.7971 2.93677 79.7971 3.37222 79.7971 3.37222C79.7971 24.2742 79.7971 45.1762 79.7971 65.6427C79.7971 68.2555 79.7971 70.4327 79.7971 73.0455C79.7971 73.4809 79.7971 74.3519 79.7971 74.7873H79.361C76.7447 74.7873 73.6924 74.7873 71.0761 74.7873H70.64V74.3519V73.9164V73.4809C70.64 56.0626 70.64 39.0798 70.64 21.6615C69.3319 21.226 69.3319 21.226 69.3319 20.7905Z" fill="#D33333"/>
<path d="M202.763 22.097C201.455 22.5325 194.914 22.5325 193.17 22.097C193.17 21.6616 193.17 20.7906 192.734 20.3552C192.298 19.4843 192.298 18.6134 191.862 17.7424C190.99 16.0006 189.681 14.2588 187.937 13.3879C185.757 12.0815 183.577 11.2106 181.396 10.7751C177.472 9.9042 173.984 10.3397 170.495 11.646C165.263 13.3879 163.082 17.7424 163.518 22.9679C163.954 25.5807 164.827 27.3225 167.007 28.6289C168.315 29.4998 170.059 30.3707 171.803 30.8062C174.42 31.6771 177.472 32.1125 180.088 32.9835C183.577 33.8544 187.065 34.7253 190.553 36.0317C192.298 36.9026 193.606 37.338 195.35 38.6444C200.147 41.6926 202.763 46.0472 203.635 51.2727C204.071 55.1918 203.635 59.1109 202.327 63.0301C200.583 66.5137 197.966 69.5619 194.914 71.7392C191.426 73.9165 187.501 75.2229 183.141 75.6583C177.908 76.5292 172.675 75.6583 167.443 73.9165C161.774 71.7392 157.414 68.2555 154.797 62.5946C154.361 61.2882 153.489 59.9818 153.489 58.24C153.053 56.4982 153.053 54.7564 152.617 52.5791C152.617 52.5791 152.617 52.1436 152.617 51.7081C153.925 51.2727 154.797 51.7081 155.67 51.7081C156.542 51.7081 157.85 51.7081 158.722 51.7081C159.594 51.7081 160.902 51.7081 162.21 51.7081C162.21 52.1436 162.21 52.5791 162.21 52.5791C162.646 54.3209 163.082 56.0627 163.518 57.8046C164.827 61.2882 167.443 63.4655 170.931 64.3364C173.548 65.2073 176.6 65.6428 179.216 65.6428C181.396 65.6428 183.141 65.2073 184.885 64.7719C186.193 64.3364 187.065 63.901 188.373 63.4655C190.117 62.5946 190.99 61.2882 192.298 59.9819C193.17 58.24 194.042 56.4982 194.042 54.7564C194.478 50.8372 193.17 47.789 190.117 45.6117C188.373 44.3054 186.629 43.4345 184.885 42.999C181.833 42.1281 178.78 41.2572 175.728 40.8217C173.112 39.9508 170.059 39.5153 167.443 38.209C165.263 37.338 162.646 36.0317 160.902 34.7253C157.414 32.1125 155.233 28.6289 154.361 24.2743C153.489 20.3552 153.925 16.8715 155.233 12.9524C156.542 9.9042 158.286 7.29145 160.902 5.11416C163.518 2.93687 167.007 1.6305 170.495 0.759583C176.6 -0.54679 182.705 -0.111331 188.809 1.6305C193.606 3.37233 197.53 6.42054 200.147 10.7751C201.455 12.5169 201.891 14.6942 202.327 16.8715C202.327 19.4843 202.763 20.7906 202.763 22.097Z" fill="#D33333"/>
<path d="M256.833 74.7874H256.397C242.007 74.7874 227.182 74.7874 212.792 74.7874C212.356 74.3519 212.356 73.9165 212.356 73.0456C212.356 69.9973 212.356 66.9491 212.356 63.9009C212.356 43.8699 212.356 24.2743 212.356 4.24321C212.356 3.37229 212.356 2.93683 212.356 2.06592C212.792 2.06592 213.228 2.06592 213.664 2.06592C224.565 2.06592 235.467 2.06592 246.368 2.06592C249.42 2.06592 252.036 2.06592 255.089 2.06592C255.525 2.06592 255.961 2.06592 256.833 2.06592C257.269 3.80775 256.833 5.11412 256.833 6.85595C256.833 8.16233 256.833 9.90416 256.833 11.646C256.397 11.646 255.961 11.646 255.525 11.646C245.06 11.646 234.158 11.646 223.693 11.646C223.257 11.646 222.385 11.646 221.949 11.646C221.949 12.0814 221.949 12.0814 221.949 12.5169C221.949 19.0488 221.949 25.5806 221.949 32.548C221.949 32.9834 221.949 32.9834 221.949 33.4189C222.385 33.8543 222.821 33.8543 223.257 33.8543C231.978 33.8543 241.135 33.8543 249.856 33.8543C250.728 33.8543 251.6 33.8543 252.473 33.8543V34.2898C252.473 36.9025 252.473 39.5153 252.473 42.128V42.5635C252.036 42.999 251.6 42.999 250.728 42.999C247.676 42.999 244.188 42.999 241.135 42.999C235.031 42.999 228.49 42.999 222.385 42.999C221.949 42.999 221.949 42.999 221.513 42.999C221.077 43.4344 221.077 44.3053 221.077 44.7408C221.077 49.9663 221.077 55.1918 221.077 60.4173C221.077 61.7236 221.077 63.03 221.077 64.3364C221.077 64.7719 221.077 65.6428 221.077 66.0782C221.513 66.0782 221.949 66.0782 222.385 66.0782C223.693 66.0782 225.001 66.0782 226.31 66.0782C235.903 66.0782 245.496 66.0782 255.089 66.0782C255.525 66.0782 255.525 66.0782 255.961 66.0782C257.269 66.9491 257.269 73.481 256.833 74.7874Z" fill="#D33333"/>
<path d="M89.3902 2.06583C90.6983 1.63037 96.367 2.06583 98.9833 2.06583C98.9833 2.50129 98.9833 2.93674 98.9833 3.3722C98.9833 17.3069 98.9833 31.2415 98.9833 45.1762C98.9833 47.7889 98.9833 49.9662 99.4193 52.5789C99.8554 54.3208 100.291 56.0626 101.164 57.8044C103.344 61.7236 106.832 64.3363 111.193 65.6427C114.681 66.5136 117.733 66.5136 121.222 66.0781C127.326 64.7718 131.687 61.2881 133.867 55.1917C134.739 53.0144 135.175 51.2726 135.175 49.0953C135.175 46.0471 135.175 43.4343 135.175 40.3861C135.175 27.7578 135.175 15.565 135.175 2.93674C135.175 2.50129 135.175 2.06583 135.175 1.63037C135.611 1.63037 135.611 1.63037 135.611 1.63037C138.664 1.63037 141.716 1.63037 144.768 1.63037C144.768 2.06583 144.768 2.50129 144.768 2.93674C144.768 16.4359 144.768 30.3706 144.768 43.8698C144.768 45.6116 144.768 47.3535 144.768 48.6598C144.768 51.2726 144.332 53.4499 143.46 56.0626C142.152 61.2881 139.1 65.6427 135.175 69.1263C131.251 72.61 126.454 74.3519 121.222 75.2228C115.989 76.0937 111.193 75.6582 105.96 73.9164C96.367 69.9973 90.6983 63.0299 88.9541 53.0144C88.9541 51.708 88.5181 50.4017 88.5181 49.0953C88.5181 39.9507 88.5181 30.8061 88.5181 21.226C88.5181 15.1296 88.5181 9.46861 88.5181 3.3722C88.9541 2.93674 89.3902 2.50129 89.3902 2.06583Z" fill="#D33333"/>
<path d="M337.938 41.2571C340.991 41.2571 344.043 41.2571 347.096 41.2571C347.532 42.128 347.532 42.9989 347.532 43.8698C347.968 46.918 348.84 49.5308 350.584 52.1435C354.508 59.1109 360.177 63.4654 368.026 65.2073C381.979 68.6909 397.241 59.5463 400.73 45.1762C402.91 36.0316 400.73 27.7579 394.189 20.7906C389.828 16.0005 384.16 12.9523 377.619 12.0814C373.258 11.6459 369.334 12.0814 364.974 13.3878C364.538 13.3878 364.101 13.3878 364.101 13.3878C363.665 12.5169 361.485 6.85591 361.049 4.67862C361.485 4.67862 361.485 4.24316 361.921 4.24316C364.101 3.80771 366.282 2.93679 368.026 2.50133C371.95 1.63042 376.311 1.63042 380.235 2.50133C387.648 3.80771 394.189 6.85591 399.421 12.0814C405.09 17.3069 409.015 23.8388 410.323 31.677C412.503 43.8698 409.451 54.7563 400.73 63.9009C395.497 69.5618 388.52 73.481 380.671 74.3519C368.026 76.5292 356.689 73.0455 347.532 63.4654C342.299 57.8045 339.247 51.2726 337.938 43.8698C337.938 42.9989 337.502 42.5635 337.502 41.6925C337.938 41.6925 337.938 41.6925 337.938 41.2571Z" fill="#D33333"/>
<path d="M298.694 75.2229C296.95 75.2229 295.206 75.2229 293.897 74.7874C286.049 73.9165 279.072 70.8683 272.531 66.0783C265.554 59.9818 261.63 52.5791 260.322 43.4344C259.013 34.2898 261.194 26.0161 265.99 18.6133C271.223 10.3396 279.072 5.5496 288.665 3.37231C290.845 2.93686 293.025 2.5014 295.206 2.5014C297.822 2.06594 300.438 2.5014 303.491 3.37231C314.828 5.5496 327.909 14.6942 331.834 30.3707C332.27 32.548 332.706 34.7253 332.706 36.9026C332.706 38.2089 332.706 39.0799 332.706 40.3862C332.706 40.8217 332.706 41.2572 332.706 41.6926C331.834 42.1281 330.526 41.6926 329.653 41.6926C328.781 41.6926 327.473 41.6926 326.601 41.6926C325.729 41.6926 324.421 41.6926 323.549 41.6926C323.549 41.2572 323.549 40.8217 323.549 40.3862C323.549 38.2089 323.549 35.5962 323.113 33.4189C321.369 26.0161 317.444 20.3552 311.339 16.0006C307.851 13.8233 304.363 12.9524 300.438 12.0815C296.078 11.2106 287.793 12.9524 283.868 15.1297C276.455 19.4843 272.095 26.0161 270.787 34.2898C268.17 48.6599 277.328 60.4173 289.537 64.3364C292.153 65.2073 294.333 65.6428 296.95 65.6428C297.822 65.6428 298.694 65.6428 299.566 65.6428V66.0783C299.566 68.691 299.566 71.3037 299.566 74.352C298.694 74.7874 298.694 74.7874 298.694 75.2229Z" fill="#D33333"/>
<path d="M10.0291 74.7874C6.54068 74.7874 3.48833 74.7874 0.435987 74.7874C-6.22291e-05 73.0456 0.435987 70.8683 0.435987 69.1264C0.435987 67.3846 0.435987 65.2073 0.435987 63.4655C0.435987 61.7237 0.435987 59.9818 0.435987 58.24C0.435987 56.4982 0.435987 54.3209 0.435987 52.579C1.74414 52.1436 7.41278 52.1436 10.4651 52.579V53.0145C10.4651 59.5464 10.4651 66.0782 10.4651 73.0456C10.0291 73.481 10.0291 73.9165 10.0291 74.7874Z" fill="#D33333"/>
<path d="M113.027 183.98C110.623 183.98 108.605 183.653 106.972 183C105.338 182.37 104.055 181.74 103.122 181.11C102.188 180.457 101.582 180.13 101.302 180.13C101.092 180.13 100.94 180.317 100.847 180.69C100.777 181.063 100.707 181.507 100.637 182.02C100.59 182.51 100.508 182.942 100.392 183.315C100.298 183.712 100.135 183.91 99.9017 183.91C99.785 183.91 99.6917 183.863 99.6217 183.77C99.5517 183.677 99.4817 183.548 99.4117 183.385L96.3667 172.395C96.32 172.232 96.32 172.08 96.3667 171.94C96.4134 171.8 96.5067 171.707 96.6467 171.66C96.7867 171.59 96.915 171.602 97.0317 171.695C97.1717 171.765 97.2767 171.882 97.3467 172.045C98.3967 174.565 99.7384 176.63 101.372 178.24C103.005 179.85 104.825 181.04 106.832 181.81C108.862 182.58 110.95 182.965 113.097 182.965C116.107 182.965 118.475 182.09 120.202 180.34C121.928 178.567 122.803 176.268 122.827 173.445C122.827 171.788 122.453 170.213 121.707 168.72C120.983 167.227 119.653 165.78 117.717 164.38C115.803 162.957 113.085 161.592 109.562 160.285C106.202 158.978 103.518 157.59 101.512 156.12C99.505 154.65 98.0467 153.052 97.1367 151.325C96.25 149.598 95.8067 147.697 95.8067 145.62C95.8067 143.077 96.3784 140.872 97.5217 139.005C98.6884 137.138 100.263 135.703 102.247 134.7C104.253 133.673 106.493 133.16 108.967 133.16C111.393 133.16 113.342 133.475 114.812 134.105C116.282 134.712 117.413 135.33 118.207 135.96C119 136.567 119.572 136.87 119.922 136.87C120.225 136.87 120.412 136.567 120.482 135.96C120.552 135.353 120.622 134.747 120.692 134.14C120.762 133.533 120.937 133.23 121.217 133.23C121.333 133.23 121.427 133.265 121.497 133.335C121.567 133.405 121.625 133.533 121.672 133.72L125.207 145.62C125.253 145.76 125.253 145.912 125.207 146.075C125.16 146.215 125.067 146.32 124.927 146.39C124.787 146.437 124.647 146.425 124.507 146.355C124.39 146.285 124.285 146.157 124.192 145.97C123.025 143.123 121.66 140.837 120.097 139.11C118.557 137.383 116.842 136.135 114.952 135.365C113.062 134.572 111.02 134.175 108.827 134.175C105.607 134.175 102.97 135.12 100.917 137.01C98.8867 138.877 97.8717 141.455 97.8717 144.745C97.8717 146.495 98.2567 148.152 99.0267 149.715C99.7967 151.278 101.127 152.772 103.017 154.195C104.907 155.618 107.52 156.983 110.857 158.29C114.45 159.667 117.262 161.09 119.292 162.56C121.345 164.03 122.792 165.593 123.632 167.25C124.472 168.907 124.88 170.703 124.857 172.64C124.857 174.717 124.402 176.618 123.492 178.345C122.582 180.048 121.252 181.413 119.502 182.44C117.752 183.467 115.593 183.98 113.027 183.98ZM134.029 153.18L131.089 152.69C130.693 152.597 130.436 152.515 130.319 152.445C130.203 152.352 130.144 152.235 130.144 152.095C130.144 152.002 130.179 151.932 130.249 151.885C130.343 151.815 130.471 151.78 130.634 151.78H133.504C134.064 151.78 134.473 151.71 134.729 151.57C135.009 151.43 135.173 151.197 135.219 150.87L136.374 145.725C136.421 145.468 136.479 145.293 136.549 145.2C136.643 145.083 136.771 145.025 136.934 145.025C137.098 145.025 137.214 145.072 137.284 145.165C137.354 145.235 137.389 145.34 137.389 145.48V177.47C137.389 179.033 137.739 180.223 138.439 181.04C139.139 181.833 140.096 182.23 141.309 182.23C141.986 182.23 142.558 182.16 143.024 182.02C143.491 181.857 143.876 181.647 144.179 181.39C144.483 181.133 144.751 180.888 144.984 180.655C145.218 180.398 145.451 180.165 145.684 179.955C145.801 179.932 145.894 179.955 145.964 180.025C146.034 180.095 146.058 180.2 146.034 180.34C145.848 180.877 145.521 181.378 145.054 181.845C144.588 182.312 144.004 182.697 143.304 183C142.604 183.28 141.823 183.42 140.959 183.42C139.279 183.42 137.891 182.953 136.794 182.02C135.721 181.087 135.184 179.675 135.184 177.785V154.545C135.184 154.172 135.103 153.88 134.939 153.67C134.776 153.437 134.473 153.273 134.029 153.18ZM135.779 152.725V151.78H145.194C145.428 151.78 145.591 151.815 145.684 151.885C145.778 151.955 145.824 152.06 145.824 152.2C145.824 152.363 145.731 152.492 145.544 152.585C145.381 152.678 145.124 152.725 144.774 152.725H135.779ZM165.234 151.22C168.127 151.22 170.705 151.92 172.969 153.32C175.255 154.697 177.052 156.61 178.359 159.06C179.665 161.487 180.319 164.298 180.319 167.495C180.319 170.668 179.665 173.48 178.359 175.93C177.075 178.357 175.29 180.258 173.004 181.635C170.717 183.012 168.08 183.7 165.094 183.7C162.2 183.7 159.622 183.012 157.359 181.635C155.119 180.258 153.345 178.357 152.039 175.93C150.755 173.48 150.114 170.668 150.114 167.495C150.114 164.298 150.744 161.487 152.004 159.06C153.264 156.61 155.025 154.697 157.289 153.32C159.552 151.92 162.2 151.22 165.234 151.22ZM167.159 182.545C169.679 182.312 171.79 181.472 173.494 180.025C175.197 178.578 176.434 176.665 177.204 174.285C177.974 171.882 178.184 169.14 177.834 166.06C177.484 162.887 176.644 160.227 175.314 158.08C174.007 155.933 172.315 154.37 170.239 153.39C168.162 152.387 165.829 152.025 163.239 152.305C160.649 152.562 158.502 153.425 156.799 154.895C155.095 156.365 153.87 158.302 153.124 160.705C152.4 163.085 152.214 165.792 152.564 168.825C152.914 171.928 153.754 174.553 155.084 176.7C156.437 178.847 158.152 180.433 160.229 181.46C162.305 182.463 164.615 182.825 167.159 182.545ZM191.319 166.34C191.319 163.097 191.786 160.355 192.719 158.115C193.652 155.852 194.842 154.137 196.289 152.97C197.759 151.78 199.287 151.185 200.874 151.185C202.577 151.185 203.907 151.64 204.864 152.55C205.844 153.437 206.334 154.533 206.334 155.84C206.334 156.47 206.182 156.972 205.879 157.345C205.599 157.695 205.237 157.87 204.794 157.87C204.351 157.87 203.966 157.73 203.639 157.45C203.336 157.147 203.184 156.692 203.184 156.085V155.175C203.184 154.218 202.962 153.518 202.519 153.075C202.076 152.632 201.341 152.41 200.314 152.41C199.031 152.41 197.747 152.958 196.464 154.055C195.181 155.128 194.119 156.715 193.279 158.815C192.462 160.892 192.054 163.458 192.054 166.515L191.319 166.34ZM192.054 152.27V162.805V180.55C192.054 180.877 192.159 181.157 192.369 181.39C192.602 181.6 192.929 181.728 193.349 181.775L196.849 182.16C197.082 182.183 197.257 182.23 197.374 182.3C197.514 182.37 197.584 182.475 197.584 182.615C197.584 182.732 197.526 182.825 197.409 182.895C197.316 182.965 197.164 183 196.954 183H185.859C185.696 183 185.556 182.965 185.439 182.895C185.322 182.802 185.264 182.708 185.264 182.615C185.264 182.498 185.322 182.405 185.439 182.335C185.579 182.242 185.766 182.183 185.999 182.16L188.519 181.81C188.939 181.717 189.266 181.577 189.499 181.39C189.732 181.18 189.849 180.912 189.849 180.585V154.825C189.849 154.592 189.791 154.405 189.674 154.265C189.581 154.125 189.382 154.055 189.079 154.055H185.579C185.369 154.055 185.217 154.032 185.124 153.985C185.031 153.915 184.984 153.833 184.984 153.74C184.984 153.647 185.019 153.565 185.089 153.495C185.182 153.402 185.334 153.332 185.544 153.285L190.304 151.85C190.607 151.757 190.841 151.698 191.004 151.675C191.191 151.628 191.342 151.605 191.459 151.605C191.669 151.605 191.821 151.663 191.914 151.78C192.007 151.873 192.054 152.037 192.054 152.27ZM223.585 180.62L222.57 183.91L211.3 155.455C210.88 154.382 210.378 153.682 209.795 153.355C209.212 153.005 208.325 152.76 207.135 152.62C206.855 152.597 206.668 152.55 206.575 152.48C206.482 152.387 206.435 152.282 206.435 152.165C206.435 152.048 206.482 151.955 206.575 151.885C206.692 151.815 206.843 151.78 207.03 151.78H217.845C218.055 151.78 218.207 151.815 218.3 151.885C218.417 151.955 218.475 152.048 218.475 152.165C218.475 152.305 218.417 152.422 218.3 152.515C218.207 152.608 218.032 152.667 217.775 152.69L215.185 152.935C214.252 153.052 213.703 153.308 213.54 153.705C213.377 154.078 213.458 154.708 213.785 155.595L223.585 180.62ZM218.09 193.955L222.78 182.23L223.095 181.425L233.035 156.505C233.548 155.268 233.688 154.405 233.455 153.915C233.245 153.402 232.592 153.075 231.495 152.935L229.465 152.69C229.185 152.667 228.987 152.62 228.87 152.55C228.777 152.457 228.73 152.34 228.73 152.2C228.73 152.06 228.777 151.955 228.87 151.885C228.987 151.815 229.15 151.78 229.36 151.78H238.81C239.02 151.78 239.183 151.827 239.3 151.92C239.417 151.99 239.475 152.083 239.475 152.2C239.475 152.34 239.417 152.445 239.3 152.515C239.207 152.585 239.008 152.643 238.705 152.69C237.562 152.807 236.687 153.098 236.08 153.565C235.497 154.032 234.983 154.825 234.54 155.945L219.175 194.27C218.592 195.74 217.973 196.907 217.32 197.77C216.667 198.633 215.967 199.24 215.22 199.59C214.473 199.963 213.657 200.15 212.77 200.15C211.37 200.15 210.262 199.777 209.445 199.03C208.628 198.283 208.22 197.397 208.22 196.37C208.22 195.74 208.36 195.238 208.64 194.865C208.943 194.492 209.34 194.305 209.83 194.305C210.273 194.305 210.623 194.48 210.88 194.83C211.137 195.203 211.265 195.658 211.265 196.195V197.035C211.265 197.782 211.428 198.318 211.755 198.645C212.082 198.995 212.525 199.17 213.085 199.17C213.715 199.17 214.31 199.007 214.87 198.68C215.43 198.353 215.978 197.805 216.515 197.035C217.052 196.288 217.577 195.262 218.09 193.955ZM244.214 153.18L241.274 152.69C240.878 152.597 240.621 152.515 240.504 152.445C240.388 152.352 240.329 152.235 240.329 152.095C240.329 152.002 240.364 151.932 240.434 151.885C240.528 151.815 240.656 151.78 240.819 151.78H243.689C244.249 151.78 244.658 151.71 244.914 151.57C245.194 151.43 245.358 151.197 245.404 150.87L246.559 145.725C246.606 145.468 246.664 145.293 246.734 145.2C246.828 145.083 246.956 145.025 247.119 145.025C247.283 145.025 247.399 145.072 247.469 145.165C247.539 145.235 247.574 145.34 247.574 145.48V177.47C247.574 179.033 247.924 180.223 248.624 181.04C249.324 181.833 250.281 182.23 251.494 182.23C252.171 182.23 252.743 182.16 253.209 182.02C253.676 181.857 254.061 181.647 254.364 181.39C254.668 181.133 254.936 180.888 255.169 180.655C255.403 180.398 255.636 180.165 255.869 179.955C255.986 179.932 256.079 179.955 256.149 180.025C256.219 180.095 256.243 180.2 256.219 180.34C256.033 180.877 255.706 181.378 255.239 181.845C254.773 182.312 254.189 182.697 253.489 183C252.789 183.28 252.008 183.42 251.144 183.42C249.464 183.42 248.076 182.953 246.979 182.02C245.906 181.087 245.369 179.675 245.369 177.785V154.545C245.369 154.172 245.288 153.88 245.124 153.67C244.961 153.437 244.658 153.273 244.214 153.18ZM245.964 152.725V151.78H255.379C255.613 151.78 255.776 151.815 255.869 151.885C255.963 151.955 256.009 152.06 256.009 152.2C256.009 152.363 255.916 152.492 255.729 152.585C255.566 152.678 255.309 152.725 254.959 152.725H245.964ZM285.779 163.365C285.779 163.832 285.627 164.182 285.324 164.415C285.02 164.648 284.577 164.765 283.994 164.765H261.454V163.89H282.174C282.92 163.89 283.294 163.563 283.294 162.91C283.294 159.643 282.465 157.018 280.809 155.035C279.152 153.028 276.9 152.025 274.054 152.025C271.674 152.025 269.62 152.667 267.894 153.95C266.19 155.21 264.872 156.948 263.939 159.165C263.029 161.358 262.574 163.878 262.574 166.725C262.574 171.578 263.717 175.347 266.004 178.03C268.314 180.713 271.265 182.055 274.859 182.055C277.379 182.055 279.572 181.332 281.439 179.885C283.305 178.438 284.46 176.583 284.904 174.32C284.927 174.133 284.974 174.005 285.044 173.935C285.114 173.865 285.207 173.83 285.324 173.83C285.487 173.83 285.592 173.888 285.639 174.005C285.709 174.098 285.732 174.215 285.709 174.355C285.452 176.128 284.775 177.727 283.679 179.15C282.605 180.55 281.24 181.658 279.584 182.475C277.927 183.292 276.095 183.7 274.089 183.7C271.265 183.7 268.815 183.07 266.739 181.81C264.685 180.527 263.099 178.707 261.979 176.35C260.859 173.993 260.299 171.217 260.299 168.02C260.299 164.893 260.882 162.07 262.049 159.55C263.215 157.007 264.849 154.977 266.949 153.46C269.049 151.92 271.51 151.15 274.334 151.15C276.55 151.15 278.522 151.675 280.249 152.725C281.975 153.752 283.329 155.187 284.309 157.03C285.289 158.85 285.779 160.962 285.779 163.365ZM297.457 132.95V180.55C297.457 180.877 297.574 181.145 297.807 181.355C298.04 181.565 298.367 181.717 298.787 181.81L301.202 182.16C301.435 182.183 301.61 182.23 301.727 182.3C301.867 182.37 301.937 182.475 301.937 182.615C301.937 182.732 301.879 182.825 301.762 182.895C301.645 182.965 301.494 183 301.307 183H291.227C291.064 183 290.935 182.965 290.842 182.895C290.749 182.825 290.702 182.732 290.702 182.615C290.702 182.498 290.76 182.405 290.877 182.335C291.017 182.242 291.215 182.172 291.472 182.125L293.922 181.81C294.342 181.717 294.669 181.577 294.902 181.39C295.135 181.18 295.252 180.912 295.252 180.585V135.505C295.252 135.248 295.194 135.062 295.077 134.945C294.984 134.805 294.797 134.735 294.517 134.735H290.982C290.772 134.735 290.62 134.712 290.527 134.665C290.434 134.595 290.387 134.513 290.387 134.42C290.387 134.327 290.434 134.245 290.527 134.175C290.62 134.082 290.772 134.012 290.982 133.965L295.742 132.53C296.045 132.413 296.279 132.343 296.442 132.32C296.629 132.297 296.769 132.285 296.862 132.285C297.072 132.285 297.224 132.343 297.317 132.46C297.41 132.553 297.457 132.717 297.457 132.95ZM315.553 132.95V180.55C315.553 180.877 315.669 181.145 315.903 181.355C316.136 181.565 316.463 181.717 316.883 181.81L319.298 182.16C319.531 182.183 319.706 182.23 319.823 182.3C319.963 182.37 320.033 182.475 320.033 182.615C320.033 182.732 319.974 182.825 319.858 182.895C319.741 182.965 319.589 183 319.403 183H309.323C309.159 183 309.031 182.965 308.938 182.895C308.844 182.825 308.798 182.732 308.798 182.615C308.798 182.498 308.856 182.405 308.973 182.335C309.113 182.242 309.311 182.172 309.568 182.125L312.018 181.81C312.438 181.717 312.764 181.577 312.998 181.39C313.231 181.18 313.348 180.912 313.348 180.585V135.505C313.348 135.248 313.289 135.062 313.173 134.945C313.079 134.805 312.893 134.735 312.613 134.735H309.078C308.868 134.735 308.716 134.712 308.623 134.665C308.529 134.595 308.483 134.513 308.483 134.42C308.483 134.327 308.529 134.245 308.623 134.175C308.716 134.082 308.868 134.012 309.078 133.965L313.838 132.53C314.141 132.413 314.374 132.343 314.538 132.32C314.724 132.297 314.864 132.285 314.958 132.285C315.168 132.285 315.319 132.343 315.413 132.46C315.506 132.553 315.553 132.717 315.553 132.95ZM331.119 152.27V180.55C331.119 180.877 331.235 181.145 331.469 181.355C331.702 181.565 332.029 181.717 332.449 181.81L334.864 182.16C335.097 182.183 335.272 182.23 335.389 182.3C335.529 182.37 335.599 182.475 335.599 182.615C335.599 182.732 335.54 182.825 335.424 182.895C335.307 182.965 335.155 183 334.969 183H324.889C324.725 183 324.597 182.965 324.504 182.895C324.41 182.825 324.364 182.732 324.364 182.615C324.364 182.498 324.41 182.417 324.504 182.37C324.62 182.3 324.784 182.242 324.994 182.195L327.584 181.81C328.004 181.717 328.33 181.577 328.564 181.39C328.797 181.18 328.914 180.912 328.914 180.585V154.825C328.914 154.592 328.855 154.405 328.739 154.265C328.645 154.125 328.459 154.055 328.179 154.055H324.644C324.434 154.055 324.282 154.032 324.189 153.985C324.095 153.915 324.049 153.833 324.049 153.74C324.049 153.647 324.095 153.565 324.189 153.495C324.282 153.402 324.434 153.332 324.644 153.285L329.404 151.85C329.707 151.757 329.94 151.698 330.104 151.675C330.29 151.628 330.43 151.605 330.524 151.605C330.734 151.605 330.885 151.663 330.979 151.78C331.072 151.873 331.119 152.037 331.119 152.27ZM329.474 143.135C328.82 143.135 328.272 142.878 327.829 142.365C327.385 141.852 327.164 141.245 327.164 140.545C327.164 139.822 327.385 139.215 327.829 138.725C328.295 138.235 328.844 137.99 329.474 137.99C330.15 137.99 330.71 138.247 331.154 138.76C331.62 139.25 331.854 139.845 331.854 140.545C331.854 141.245 331.62 141.852 331.154 142.365C330.687 142.878 330.127 143.135 329.474 143.135ZM346.408 152.27V180.55C346.408 180.877 346.513 181.145 346.723 181.355C346.957 181.565 347.283 181.717 347.703 181.81L350.118 182.16C350.608 182.207 350.853 182.358 350.853 182.615C350.853 182.872 350.643 183 350.223 183H340.178C340.015 183 339.875 182.965 339.758 182.895C339.665 182.825 339.618 182.732 339.618 182.615C339.618 182.498 339.677 182.417 339.793 182.37C339.91 182.3 340.073 182.242 340.283 182.195L342.873 181.81C343.293 181.717 343.62 181.577 343.853 181.39C344.087 181.18 344.203 180.912 344.203 180.585V154.825C344.203 154.592 344.145 154.405 344.028 154.265C343.935 154.125 343.737 154.055 343.433 154.055H339.933C339.723 154.055 339.572 154.032 339.478 153.985C339.385 153.915 339.338 153.833 339.338 153.74C339.338 153.647 339.373 153.565 339.443 153.495C339.537 153.402 339.688 153.332 339.898 153.285L344.658 151.85C344.962 151.757 345.207 151.698 345.393 151.675C345.58 151.628 345.72 151.605 345.813 151.605C346.023 151.605 346.175 151.663 346.268 151.78C346.362 151.873 346.408 152.037 346.408 152.27ZM345.848 158.395L345.288 157.87L346.793 156.54C349.057 154.557 350.97 153.168 352.533 152.375C354.12 151.582 355.73 151.185 357.363 151.185C359.837 151.185 361.75 152.025 363.103 153.705C364.457 155.362 365.343 157.742 365.763 160.845L368.458 180.2C368.528 180.643 368.692 181.017 368.948 181.32C369.228 181.6 369.637 181.787 370.173 181.88L372.238 182.195C372.448 182.218 372.6 182.265 372.693 182.335C372.81 182.405 372.868 182.498 372.868 182.615C372.868 182.732 372.822 182.825 372.728 182.895C372.635 182.965 372.495 183 372.308 183H362.123C361.703 183 361.493 182.872 361.493 182.615C361.493 182.382 361.738 182.23 362.228 182.16L364.783 181.81C365.32 181.717 365.717 181.53 365.973 181.25C366.23 180.947 366.323 180.597 366.253 180.2L363.558 161.16C363.138 158.243 362.368 156.073 361.248 154.65C360.128 153.227 358.518 152.515 356.418 152.515C355.088 152.515 353.688 152.888 352.218 153.635C350.772 154.382 349.127 155.56 347.283 157.17L345.848 158.395ZM393.692 183.63C396.282 184.283 398.289 185.007 399.712 185.8C401.136 186.617 402.127 187.503 402.687 188.46C403.271 189.44 403.562 190.525 403.562 191.715C403.562 194.212 402.314 196.253 399.817 197.84C397.344 199.427 393.867 200.22 389.387 200.22C386.027 200.22 383.239 199.835 381.022 199.065C378.829 198.295 377.184 197.257 376.087 195.95C374.991 194.643 374.442 193.197 374.442 191.61C374.442 189.603 375.446 187.737 377.452 186.01C379.459 184.307 382.901 183.093 387.777 182.37L388.442 183.14C384.429 183.607 381.407 184.61 379.377 186.15C377.347 187.69 376.332 189.463 376.332 191.47C376.332 193.757 377.371 195.635 379.447 197.105C381.524 198.575 384.931 199.31 389.667 199.31C392.281 199.31 394.474 199.007 396.247 198.4C398.021 197.817 399.351 196.988 400.237 195.915C401.147 194.842 401.602 193.582 401.602 192.135C401.602 191.225 401.346 190.362 400.832 189.545C400.342 188.752 399.421 187.993 398.067 187.27C396.714 186.57 394.754 185.905 392.187 185.275C388.991 184.458 386.564 183.7 384.907 183C383.251 182.323 382.131 181.658 381.547 181.005C380.964 180.328 380.672 179.605 380.672 178.835C380.672 178.298 380.801 177.773 381.057 177.26C381.314 176.723 381.757 176.198 382.387 175.685C383.041 175.172 383.927 174.67 385.047 174.18L385.747 174.53C384.674 175.043 383.881 175.568 383.367 176.105C382.877 176.642 382.632 177.213 382.632 177.82C382.632 178.403 382.854 178.963 383.297 179.5C383.741 180.037 384.744 180.632 386.307 181.285C387.871 181.915 390.332 182.697 393.692 183.63ZM395.477 154.16L396.247 153.145C397.111 152.072 397.997 151.232 398.907 150.625C399.817 149.995 400.762 149.68 401.742 149.68C402.699 149.68 403.504 149.948 404.157 150.485C404.811 150.998 405.137 151.628 405.137 152.375C405.137 152.888 405.009 153.308 404.752 153.635C404.519 153.938 404.157 154.09 403.667 154.09C403.271 154.09 402.932 153.95 402.652 153.67C402.372 153.39 402.104 153.075 401.847 152.725C401.614 152.352 401.369 152.037 401.112 151.78C400.856 151.5 400.541 151.36 400.167 151.36C399.607 151.36 399.024 151.605 398.417 152.095C397.811 152.562 397.076 153.378 396.212 154.545L395.477 154.16ZM400.832 163.12C400.832 165.593 400.272 167.763 399.152 169.63C398.032 171.497 396.516 172.955 394.602 174.005C392.712 175.055 390.612 175.58 388.302 175.58C386.016 175.58 383.951 175.055 382.107 174.005C380.287 172.955 378.841 171.532 377.767 169.735C376.694 167.915 376.157 165.885 376.157 163.645C376.157 161.195 376.694 159.037 377.767 157.17C378.841 155.303 380.311 153.833 382.177 152.76C384.044 151.687 386.179 151.15 388.582 151.15C390.892 151.15 392.969 151.675 394.812 152.725C396.656 153.775 398.114 155.21 399.187 157.03C400.284 158.827 400.832 160.857 400.832 163.12ZM387.882 152.2C385.992 152.2 384.336 152.632 382.912 153.495C381.489 154.358 380.381 155.572 379.587 157.135C378.817 158.698 378.432 160.495 378.432 162.525C378.432 164.788 378.876 166.83 379.762 168.65C380.649 170.47 381.897 171.905 383.507 172.955C385.117 174.005 386.972 174.53 389.072 174.53C391.989 174.53 394.299 173.585 396.002 171.695C397.706 169.805 398.557 167.332 398.557 164.275C398.557 160.775 397.589 157.893 395.652 155.63C393.716 153.343 391.126 152.2 387.882 152.2ZM95.8111 257.55C95.8111 257.877 95.9161 258.157 96.1261 258.39C96.3594 258.623 96.6861 258.763 97.1061 258.81L101.096 259.16C101.329 259.16 101.504 259.207 101.621 259.3C101.761 259.37 101.831 259.475 101.831 259.615C101.831 259.872 101.621 260 101.201 260H89.5811C89.4177 260 89.2777 259.965 89.1611 259.895C89.0677 259.825 89.0211 259.732 89.0211 259.615C89.0211 259.498 89.0794 259.405 89.1961 259.335C89.3361 259.242 89.5111 259.183 89.7211 259.16L92.2761 258.81C92.6961 258.717 93.0227 258.577 93.2561 258.39C93.4894 258.18 93.6061 257.912 93.6061 257.585V231.58C93.6061 231.207 93.5127 230.915 93.3261 230.705C93.1627 230.472 92.8594 230.308 92.4161 230.215L89.0211 229.69C88.6244 229.62 88.3677 229.538 88.2511 229.445C88.1344 229.352 88.0761 229.235 88.0761 229.095C88.0761 229.002 88.1111 228.932 88.1811 228.885C88.2744 228.815 88.4027 228.78 88.5661 228.78H94.2361L93.6411 229.585V228.465C93.6411 227.508 93.4894 226.598 93.1861 225.735C92.9061 224.872 92.5561 224.008 92.1361 223.145C91.7394 222.282 91.3894 221.372 91.0861 220.415C90.8061 219.435 90.6661 218.373 90.6661 217.23C90.6661 214.967 91.3661 213.123 92.7661 211.7C94.1661 210.253 95.9511 209.53 98.1211 209.53C99.4977 209.53 100.676 209.775 101.656 210.265C102.636 210.732 103.383 211.373 103.896 212.19C104.433 212.983 104.701 213.847 104.701 214.78C104.701 215.503 104.549 216.063 104.246 216.46C103.966 216.833 103.593 217.02 103.126 217.02C102.683 217.02 102.321 216.857 102.041 216.53C101.761 216.18 101.621 215.69 101.621 215.06V214.045C101.621 212.878 101.294 211.968 100.641 211.315C100.011 210.662 99.0544 210.335 97.7711 210.335C96.0677 210.335 94.7261 210.883 93.7461 211.98C92.7661 213.053 92.2761 214.535 92.2761 216.425C92.2761 217.335 92.3927 218.21 92.6261 219.05C92.8594 219.867 93.1511 220.66 93.5011 221.43C93.8511 222.177 94.2011 222.923 94.5511 223.67C94.9244 224.393 95.2277 225.152 95.4611 225.945C95.6944 226.715 95.8111 227.508 95.8111 228.325V229.305L95.3561 228.78H103.021C103.231 228.78 103.383 228.815 103.476 228.885C103.569 228.932 103.616 229.025 103.616 229.165C103.616 229.328 103.523 229.468 103.336 229.585C103.173 229.678 102.928 229.725 102.601 229.725H95.8111V257.55ZM121.435 228.22C124.328 228.22 126.907 228.92 129.17 230.32C131.457 231.697 133.253 233.61 134.56 236.06C135.867 238.487 136.52 241.298 136.52 244.495C136.52 247.668 135.867 250.48 134.56 252.93C133.277 255.357 131.492 257.258 129.205 258.635C126.918 260.012 124.282 260.7 121.295 260.7C118.402 260.7 115.823 260.012 113.56 258.635C111.32 257.258 109.547 255.357 108.24 252.93C106.957 250.48 106.315 247.668 106.315 244.495C106.315 241.298 106.945 238.487 108.205 236.06C109.465 233.61 111.227 231.697 113.49 230.32C115.753 228.92 118.402 228.22 121.435 228.22ZM123.36 259.545C125.88 259.312 127.992 258.472 129.695 257.025C131.398 255.578 132.635 253.665 133.405 251.285C134.175 248.882 134.385 246.14 134.035 243.06C133.685 239.887 132.845 237.227 131.515 235.08C130.208 232.933 128.517 231.37 126.44 230.39C124.363 229.387 122.03 229.025 119.44 229.305C116.85 229.562 114.703 230.425 113 231.895C111.297 233.365 110.072 235.302 109.325 237.705C108.602 240.085 108.415 242.792 108.765 245.825C109.115 248.928 109.955 251.553 111.285 253.7C112.638 255.847 114.353 257.433 116.43 258.46C118.507 259.463 120.817 259.825 123.36 259.545ZM147.52 243.34C147.52 240.097 147.987 237.355 148.92 235.115C149.854 232.852 151.044 231.137 152.49 229.97C153.96 228.78 155.489 228.185 157.075 228.185C158.779 228.185 160.109 228.64 161.065 229.55C162.045 230.437 162.535 231.533 162.535 232.84C162.535 233.47 162.384 233.972 162.08 234.345C161.8 234.695 161.439 234.87 160.995 234.87C160.552 234.87 160.167 234.73 159.84 234.45C159.537 234.147 159.385 233.692 159.385 233.085V232.175C159.385 231.218 159.164 230.518 158.72 230.075C158.277 229.632 157.542 229.41 156.515 229.41C155.232 229.41 153.949 229.958 152.665 231.055C151.382 232.128 150.32 233.715 149.48 235.815C148.664 237.892 148.255 240.458 148.255 243.515L147.52 243.34ZM148.255 229.27V239.805V257.55C148.255 257.877 148.36 258.157 148.57 258.39C148.804 258.6 149.13 258.728 149.55 258.775L153.05 259.16C153.284 259.183 153.459 259.23 153.575 259.3C153.715 259.37 153.785 259.475 153.785 259.615C153.785 259.732 153.727 259.825 153.61 259.895C153.517 259.965 153.365 260 153.155 260H142.06C141.897 260 141.757 259.965 141.64 259.895C141.524 259.802 141.465 259.708 141.465 259.615C141.465 259.498 141.524 259.405 141.64 259.335C141.78 259.242 141.967 259.183 142.2 259.16L144.72 258.81C145.14 258.717 145.467 258.577 145.7 258.39C145.934 258.18 146.05 257.912 146.05 257.585V231.825C146.05 231.592 145.992 231.405 145.875 231.265C145.782 231.125 145.584 231.055 145.28 231.055H141.78C141.57 231.055 141.419 231.032 141.325 230.985C141.232 230.915 141.185 230.833 141.185 230.74C141.185 230.647 141.22 230.565 141.29 230.495C141.384 230.402 141.535 230.332 141.745 230.285L146.505 228.85C146.809 228.757 147.042 228.698 147.205 228.675C147.392 228.628 147.544 228.605 147.66 228.605C147.87 228.605 148.022 228.663 148.115 228.78C148.209 228.873 148.255 229.037 148.255 229.27ZM205.017 240.365C205.017 240.832 204.865 241.182 204.562 241.415C204.259 241.648 203.815 241.765 203.232 241.765H180.692V240.89H201.412C202.159 240.89 202.532 240.563 202.532 239.91C202.532 236.643 201.704 234.018 200.047 232.035C198.39 230.028 196.139 229.025 193.292 229.025C190.912 229.025 188.859 229.667 187.132 230.95C185.429 232.21 184.11 233.948 183.177 236.165C182.267 238.358 181.812 240.878 181.812 243.725C181.812 248.578 182.955 252.347 185.242 255.03C187.552 257.713 190.504 259.055 194.097 259.055C196.617 259.055 198.81 258.332 200.677 256.885C202.544 255.438 203.699 253.583 204.142 251.32C204.165 251.133 204.212 251.005 204.282 250.935C204.352 250.865 204.445 250.83 204.562 250.83C204.725 250.83 204.83 250.888 204.877 251.005C204.947 251.098 204.97 251.215 204.947 251.355C204.69 253.128 204.014 254.727 202.917 256.15C201.844 257.55 200.479 258.658 198.822 259.475C197.165 260.292 195.334 260.7 193.327 260.7C190.504 260.7 188.054 260.07 185.977 258.81C183.924 257.527 182.337 255.707 181.217 253.35C180.097 250.993 179.537 248.217 179.537 245.02C179.537 241.893 180.12 239.07 181.287 236.55C182.454 234.007 184.087 231.977 186.187 230.46C188.287 228.92 190.749 228.15 193.572 228.15C195.789 228.15 197.76 228.675 199.487 229.725C201.214 230.752 202.567 232.187 203.547 234.03C204.527 235.85 205.017 237.962 205.017 240.365ZM223.591 260.455H223.206C222.972 260.455 222.774 260.385 222.611 260.245C222.447 260.128 222.307 259.942 222.191 259.685L211.621 232.385C211.294 231.592 210.967 230.997 210.641 230.6C210.337 230.203 209.941 229.982 209.451 229.935L207.841 229.69C207.514 229.643 207.292 229.585 207.176 229.515C207.059 229.422 207.001 229.305 207.001 229.165C207.001 229.048 207.047 228.955 207.141 228.885C207.257 228.815 207.397 228.78 207.561 228.78H218.236C218.656 228.78 218.866 228.908 218.866 229.165C218.866 229.282 218.807 229.387 218.691 229.48C218.597 229.55 218.411 229.608 218.131 229.655L216.381 229.935C215.051 230.145 214.269 230.472 214.036 230.915C213.826 231.358 213.919 232.128 214.316 233.225L224.046 258.6L223.696 258.565L233.706 233.225C234.126 232.128 234.219 231.358 233.986 230.915C233.752 230.448 232.971 230.122 231.641 229.935L229.716 229.655C229.436 229.608 229.237 229.55 229.121 229.48C229.027 229.41 228.981 229.305 228.981 229.165C228.981 229.025 229.027 228.932 229.121 228.885C229.237 228.815 229.401 228.78 229.611 228.78H239.516C239.679 228.78 239.807 228.815 239.901 228.885C240.017 228.955 240.076 229.048 240.076 229.165C240.076 229.305 240.017 229.422 239.901 229.515C239.784 229.585 239.562 229.643 239.236 229.69L237.591 229.935C237.147 229.982 236.762 230.203 236.436 230.6C236.109 230.973 235.794 231.568 235.491 232.385L224.501 259.72C224.384 260 224.256 260.187 224.116 260.28C223.976 260.397 223.801 260.455 223.591 260.455ZM256.278 228.22C259.171 228.22 261.75 228.92 264.013 230.32C266.3 231.697 268.096 233.61 269.403 236.06C270.71 238.487 271.363 241.298 271.363 244.495C271.363 247.668 270.71 250.48 269.403 252.93C268.12 255.357 266.335 257.258 264.048 258.635C261.761 260.012 259.125 260.7 256.138 260.7C253.245 260.7 250.666 260.012 248.403 258.635C246.163 257.258 244.39 255.357 243.083 252.93C241.8 250.48 241.158 247.668 241.158 244.495C241.158 241.298 241.788 238.487 243.048 236.06C244.308 233.61 246.07 231.697 248.333 230.32C250.596 228.92 253.245 228.22 256.278 228.22ZM258.203 259.545C260.723 259.312 262.835 258.472 264.538 257.025C266.241 255.578 267.478 253.665 268.248 251.285C269.018 248.882 269.228 246.14 268.878 243.06C268.528 239.887 267.688 237.227 266.358 235.08C265.051 232.933 263.36 231.37 261.283 230.39C259.206 229.387 256.873 229.025 254.283 229.305C251.693 229.562 249.546 230.425 247.843 231.895C246.14 233.365 244.915 235.302 244.168 237.705C243.445 240.085 243.258 242.792 243.608 245.825C243.958 248.928 244.798 251.553 246.128 253.7C247.481 255.847 249.196 257.433 251.273 258.46C253.35 259.463 255.66 259.825 258.203 259.545ZM283.238 209.95V257.55C283.238 257.877 283.355 258.145 283.588 258.355C283.822 258.565 284.148 258.717 284.568 258.81L286.983 259.16C287.217 259.183 287.392 259.23 287.508 259.3C287.648 259.37 287.718 259.475 287.718 259.615C287.718 259.732 287.66 259.825 287.543 259.895C287.427 259.965 287.275 260 287.088 260H277.008C276.845 260 276.717 259.965 276.623 259.895C276.53 259.825 276.483 259.732 276.483 259.615C276.483 259.498 276.542 259.405 276.658 259.335C276.798 259.242 276.997 259.172 277.253 259.125L279.703 258.81C280.123 258.717 280.45 258.577 280.683 258.39C280.917 258.18 281.033 257.912 281.033 257.585V212.505C281.033 212.248 280.975 212.062 280.858 211.945C280.765 211.805 280.578 211.735 280.298 211.735H276.763C276.553 211.735 276.402 211.712 276.308 211.665C276.215 211.595 276.168 211.513 276.168 211.42C276.168 211.327 276.215 211.245 276.308 211.175C276.402 211.082 276.553 211.012 276.763 210.965L281.523 209.53C281.827 209.413 282.06 209.343 282.223 209.32C282.41 209.297 282.55 209.285 282.643 209.285C282.853 209.285 283.005 209.343 283.098 209.46C283.192 209.553 283.238 209.717 283.238 209.95ZM305.7 260.455H305.315C305.081 260.455 304.883 260.385 304.72 260.245C304.556 260.128 304.416 259.942 304.3 259.685L293.73 232.385C293.403 231.592 293.076 230.997 292.75 230.6C292.446 230.203 292.05 229.982 291.56 229.935L289.95 229.69C289.623 229.643 289.401 229.585 289.285 229.515C289.168 229.422 289.11 229.305 289.11 229.165C289.11 229.048 289.156 228.955 289.25 228.885C289.366 228.815 289.506 228.78 289.67 228.78H300.345C300.765 228.78 300.975 228.908 300.975 229.165C300.975 229.282 300.916 229.387 300.8 229.48C300.706 229.55 300.52 229.608 300.24 229.655L298.49 229.935C297.16 230.145 296.378 230.472 296.145 230.915C295.935 231.358 296.028 232.128 296.425 233.225L306.155 258.6L305.805 258.565L315.815 233.225C316.235 232.128 316.328 231.358 316.095 230.915C315.861 230.448 315.08 230.122 313.75 229.935L311.825 229.655C311.545 229.608 311.346 229.55 311.23 229.48C311.136 229.41 311.09 229.305 311.09 229.165C311.09 229.025 311.136 228.932 311.23 228.885C311.346 228.815 311.51 228.78 311.72 228.78H321.625C321.788 228.78 321.916 228.815 322.01 228.885C322.126 228.955 322.185 229.048 322.185 229.165C322.185 229.305 322.126 229.422 322.01 229.515C321.893 229.585 321.671 229.643 321.345 229.69L319.7 229.935C319.256 229.982 318.871 230.203 318.545 230.6C318.218 230.973 317.903 231.568 317.6 232.385L306.61 259.72C306.493 260 306.365 260.187 306.225 260.28C306.085 260.397 305.91 260.455 305.7 260.455ZM331.119 229.27V257.55C331.119 257.877 331.235 258.145 331.469 258.355C331.702 258.565 332.029 258.717 332.449 258.81L334.864 259.16C335.097 259.183 335.272 259.23 335.389 259.3C335.529 259.37 335.599 259.475 335.599 259.615C335.599 259.732 335.54 259.825 335.424 259.895C335.307 259.965 335.155 260 334.969 260H324.889C324.725 260 324.597 259.965 324.504 259.895C324.41 259.825 324.364 259.732 324.364 259.615C324.364 259.498 324.41 259.417 324.504 259.37C324.62 259.3 324.784 259.242 324.994 259.195L327.584 258.81C328.004 258.717 328.33 258.577 328.564 258.39C328.797 258.18 328.914 257.912 328.914 257.585V231.825C328.914 231.592 328.855 231.405 328.739 231.265C328.645 231.125 328.459 231.055 328.179 231.055H324.644C324.434 231.055 324.282 231.032 324.189 230.985C324.095 230.915 324.049 230.833 324.049 230.74C324.049 230.647 324.095 230.565 324.189 230.495C324.282 230.402 324.434 230.332 324.644 230.285L329.404 228.85C329.707 228.757 329.94 228.698 330.104 228.675C330.29 228.628 330.43 228.605 330.524 228.605C330.734 228.605 330.885 228.663 330.979 228.78C331.072 228.873 331.119 229.037 331.119 229.27ZM329.474 220.135C328.82 220.135 328.272 219.878 327.829 219.365C327.385 218.852 327.164 218.245 327.164 217.545C327.164 216.822 327.385 216.215 327.829 215.725C328.295 215.235 328.844 214.99 329.474 214.99C330.15 214.99 330.71 215.247 331.154 215.76C331.62 216.25 331.854 216.845 331.854 217.545C331.854 218.245 331.62 218.852 331.154 219.365C330.687 219.878 330.127 220.135 329.474 220.135ZM346.408 229.27V257.55C346.408 257.877 346.513 258.145 346.723 258.355C346.957 258.565 347.283 258.717 347.703 258.81L350.118 259.16C350.608 259.207 350.853 259.358 350.853 259.615C350.853 259.872 350.643 260 350.223 260H340.178C340.015 260 339.875 259.965 339.758 259.895C339.665 259.825 339.618 259.732 339.618 259.615C339.618 259.498 339.677 259.417 339.793 259.37C339.91 259.3 340.073 259.242 340.283 259.195L342.873 258.81C343.293 258.717 343.62 258.577 343.853 258.39C344.087 258.18 344.203 257.912 344.203 257.585V231.825C344.203 231.592 344.145 231.405 344.028 231.265C343.935 231.125 343.737 231.055 343.433 231.055H339.933C339.723 231.055 339.572 231.032 339.478 230.985C339.385 230.915 339.338 230.833 339.338 230.74C339.338 230.647 339.373 230.565 339.443 230.495C339.537 230.402 339.688 230.332 339.898 230.285L344.658 228.85C344.962 228.757 345.207 228.698 345.393 228.675C345.58 228.628 345.72 228.605 345.813 228.605C346.023 228.605 346.175 228.663 346.268 228.78C346.362 228.873 346.408 229.037 346.408 229.27ZM345.848 235.395L345.288 234.87L346.793 233.54C349.057 231.557 350.97 230.168 352.533 229.375C354.12 228.582 355.73 228.185 357.363 228.185C359.837 228.185 361.75 229.025 363.103 230.705C364.457 232.362 365.343 234.742 365.763 237.845L368.458 257.2C368.528 257.643 368.692 258.017 368.948 258.32C369.228 258.6 369.637 258.787 370.173 258.88L372.238 259.195C372.448 259.218 372.6 259.265 372.693 259.335C372.81 259.405 372.868 259.498 372.868 259.615C372.868 259.732 372.822 259.825 372.728 259.895C372.635 259.965 372.495 260 372.308 260H362.123C361.703 260 361.493 259.872 361.493 259.615C361.493 259.382 361.738 259.23 362.228 259.16L364.783 258.81C365.32 258.717 365.717 258.53 365.973 258.25C366.23 257.947 366.323 257.597 366.253 257.2L363.558 238.16C363.138 235.243 362.368 233.073 361.248 231.65C360.128 230.227 358.518 229.515 356.418 229.515C355.088 229.515 353.688 229.888 352.218 230.635C350.772 231.382 349.127 232.56 347.283 234.17L345.848 235.395ZM393.692 260.63C396.282 261.283 398.289 262.007 399.712 262.8C401.136 263.617 402.127 264.503 402.687 265.46C403.271 266.44 403.562 267.525 403.562 268.715C403.562 271.212 402.314 273.253 399.817 274.84C397.344 276.427 393.867 277.22 389.387 277.22C386.027 277.22 383.239 276.835 381.022 276.065C378.829 275.295 377.184 274.257 376.087 272.95C374.991 271.643 374.442 270.197 374.442 268.61C374.442 266.603 375.446 264.737 377.452 263.01C379.459 261.307 382.901 260.093 387.777 259.37L388.442 260.14C384.429 260.607 381.407 261.61 379.377 263.15C377.347 264.69 376.332 266.463 376.332 268.47C376.332 270.757 377.371 272.635 379.447 274.105C381.524 275.575 384.931 276.31 389.667 276.31C392.281 276.31 394.474 276.007 396.247 275.4C398.021 274.817 399.351 273.988 400.237 272.915C401.147 271.842 401.602 270.582 401.602 269.135C401.602 268.225 401.346 267.362 400.832 266.545C400.342 265.752 399.421 264.993 398.067 264.27C396.714 263.57 394.754 262.905 392.187 262.275C388.991 261.458 386.564 260.7 384.907 260C383.251 259.323 382.131 258.658 381.547 258.005C380.964 257.328 380.672 256.605 380.672 255.835C380.672 255.298 380.801 254.773 381.057 254.26C381.314 253.723 381.757 253.198 382.387 252.685C383.041 252.172 383.927 251.67 385.047 251.18L385.747 251.53C384.674 252.043 383.881 252.568 383.367 253.105C382.877 253.642 382.632 254.213 382.632 254.82C382.632 255.403 382.854 255.963 383.297 256.5C383.741 257.037 384.744 257.632 386.307 258.285C387.871 258.915 390.332 259.697 393.692 260.63ZM395.477 231.16L396.247 230.145C397.111 229.072 397.997 228.232 398.907 227.625C399.817 226.995 400.762 226.68 401.742 226.68C402.699 226.68 403.504 226.948 404.157 227.485C404.811 227.998 405.137 228.628 405.137 229.375C405.137 229.888 405.009 230.308 404.752 230.635C404.519 230.938 404.157 231.09 403.667 231.09C403.271 231.09 402.932 230.95 402.652 230.67C402.372 230.39 402.104 230.075 401.847 229.725C401.614 229.352 401.369 229.037 401.112 228.78C400.856 228.5 400.541 228.36 400.167 228.36C399.607 228.36 399.024 228.605 398.417 229.095C397.811 229.562 397.076 230.378 396.212 231.545L395.477 231.16ZM400.832 240.12C400.832 242.593 400.272 244.763 399.152 246.63C398.032 248.497 396.516 249.955 394.602 251.005C392.712 252.055 390.612 252.58 388.302 252.58C386.016 252.58 383.951 252.055 382.107 251.005C380.287 249.955 378.841 248.532 377.767 246.735C376.694 244.915 376.157 242.885 376.157 240.645C376.157 238.195 376.694 236.037 377.767 234.17C378.841 232.303 380.311 230.833 382.177 229.76C384.044 228.687 386.179 228.15 388.582 228.15C390.892 228.15 392.969 228.675 394.812 229.725C396.656 230.775 398.114 232.21 399.187 234.03C400.284 235.827 400.832 237.857 400.832 240.12ZM387.882 229.2C385.992 229.2 384.336 229.632 382.912 230.495C381.489 231.358 380.381 232.572 379.587 234.135C378.817 235.698 378.432 237.495 378.432 239.525C378.432 241.788 378.876 243.83 379.762 245.65C380.649 247.47 381.897 248.905 383.507 249.955C385.117 251.005 386.972 251.53 389.072 251.53C391.989 251.53 394.299 250.585 396.002 248.695C397.706 246.805 398.557 244.332 398.557 241.275C398.557 237.775 397.589 234.893 395.652 232.63C393.716 230.343 391.126 229.2 387.882 229.2ZM169.29 328.11L168.275 329.335L184.9 288.84C185.04 288.537 185.192 288.327 185.355 288.21C185.542 288.07 185.787 288 186.09 288H191.165C191.375 288 191.539 288.035 191.655 288.105C191.772 288.152 191.83 288.245 191.83 288.385C191.83 288.455 191.784 288.525 191.69 288.595C191.597 288.665 191.399 288.723 191.095 288.77L187.735 289.33C187.129 289.447 186.709 289.668 186.475 289.995C186.242 290.298 186.149 290.835 186.195 291.605L189.45 334.06C189.497 334.573 189.637 334.947 189.87 335.18C190.104 335.413 190.535 335.588 191.165 335.705L194.28 336.23C194.56 336.277 194.747 336.335 194.84 336.405C194.957 336.452 195.015 336.522 195.015 336.615C195.015 336.732 194.957 336.825 194.84 336.895C194.747 336.965 194.595 337 194.385 337H181.925C181.739 337 181.587 336.965 181.47 336.895C181.354 336.825 181.295 336.732 181.295 336.615C181.295 336.522 181.342 336.452 181.435 336.405C181.552 336.335 181.75 336.277 182.03 336.23L185.145 335.705C185.869 335.565 186.359 335.378 186.615 335.145C186.872 334.912 186.989 334.573 186.965 334.13L183.71 292.375L184.655 292.48L168.835 330.945C168.742 331.132 168.649 331.272 168.555 331.365C168.485 331.458 168.404 331.505 168.31 331.505C168.24 331.505 168.17 331.482 168.1 331.435C168.054 331.388 168.007 331.33 167.96 331.26C167.914 331.167 167.855 331.062 167.785 330.945L151.545 292.935L152.455 291.815L149.305 333.15C149.259 333.827 149.364 334.34 149.62 334.69C149.9 335.017 150.39 335.25 151.09 335.39L155.36 336.23C155.57 336.277 155.745 336.323 155.885 336.37C156.049 336.417 156.13 336.498 156.13 336.615C156.13 336.732 156.06 336.825 155.92 336.895C155.804 336.965 155.64 337 155.43 337H142.725C142.515 337 142.352 336.965 142.235 336.895C142.119 336.825 142.06 336.732 142.06 336.615C142.06 336.498 142.119 336.417 142.235 336.37C142.375 336.3 142.562 336.253 142.795 336.23L145.98 335.425C146.75 335.285 147.287 335.04 147.59 334.69C147.894 334.34 148.069 333.827 148.115 333.15L151.3 291.255C151.347 290.765 151.219 290.357 150.915 290.03C150.635 289.68 150.145 289.458 149.445 289.365L146.645 288.98C146.249 288.933 145.957 288.875 145.77 288.805C145.584 288.735 145.49 288.63 145.49 288.49C145.49 288.163 145.794 288 146.4 288H151.335C151.662 288 151.919 288.047 152.105 288.14C152.292 288.233 152.432 288.432 152.525 288.735L169.29 328.11ZM222.862 335.215V331.645V331.435V308.86C222.862 308.603 222.803 308.417 222.687 308.3C222.593 308.16 222.407 308.09 222.127 308.09H218.592C218.405 308.09 218.265 308.067 218.172 308.02C218.078 307.95 218.032 307.868 218.032 307.775C218.032 307.658 218.067 307.565 218.137 307.495C218.23 307.425 218.382 307.355 218.592 307.285L223.352 305.85C223.655 305.757 223.888 305.698 224.052 305.675C224.238 305.628 224.39 305.605 224.507 305.605C224.693 305.605 224.833 305.663 224.927 305.78C225.02 305.897 225.067 306.06 225.067 306.27V334.55C225.067 334.877 225.183 335.145 225.417 335.355C225.65 335.565 225.977 335.717 226.397 335.81L228.812 336.16C229.068 336.183 229.255 336.23 229.372 336.3C229.488 336.37 229.547 336.475 229.547 336.615C229.547 336.732 229.488 336.825 229.372 336.895C229.278 336.965 229.127 337 228.917 337H224.402C223.842 337 223.445 336.883 223.212 336.65C222.978 336.393 222.862 335.915 222.862 335.215ZM202.352 327.935V308.86C202.352 308.603 202.293 308.417 202.177 308.3C202.083 308.16 201.885 308.09 201.582 308.09H198.047C197.86 308.09 197.72 308.067 197.627 308.02C197.533 307.95 197.487 307.868 197.487 307.775C197.487 307.658 197.522 307.565 197.592 307.495C197.685 307.425 197.837 307.355 198.047 307.285L202.842 305.85C203.145 305.757 203.378 305.698 203.542 305.675C203.728 305.628 203.88 305.605 203.997 305.605C204.183 305.605 204.323 305.663 204.417 305.78C204.51 305.897 204.557 306.06 204.557 306.27V327.585C204.557 330.548 205.28 332.742 206.727 334.165C208.197 335.565 210.075 336.265 212.362 336.265C213.785 336.265 215.278 335.903 216.842 335.18C218.428 334.433 220.167 333.243 222.057 331.61L223.457 330.385L224.052 330.91L222.547 332.205C220.237 334.258 218.23 335.67 216.527 336.44C214.823 337.187 213.132 337.56 211.452 337.56C208.768 337.56 206.575 336.732 204.872 335.075C203.192 333.418 202.352 331.038 202.352 327.935ZM245.867 336.755C247.944 336.755 249.612 336.183 250.872 335.04C252.155 333.897 252.797 332.392 252.797 330.525C252.797 329.312 252.505 328.25 251.922 327.34C251.362 326.407 250.405 325.567 249.052 324.82C247.722 324.05 245.902 323.315 243.592 322.615C241.189 321.892 239.264 321.063 237.817 320.13C236.37 319.197 235.32 318.158 234.667 317.015C234.014 315.848 233.687 314.565 233.687 313.165C233.687 310.762 234.539 308.825 236.242 307.355C237.969 305.862 240.314 305.115 243.277 305.115C244.56 305.115 245.645 305.243 246.532 305.5C247.419 305.757 248.142 306.013 248.702 306.27C249.262 306.527 249.694 306.655 249.997 306.655C250.3 306.655 250.557 306.527 250.767 306.27C251 306.013 251.21 305.757 251.397 305.5C251.607 305.243 251.805 305.115 251.992 305.115C252.109 305.115 252.202 305.15 252.272 305.22C252.342 305.267 252.412 305.383 252.482 305.57L255.282 313.865C255.375 314.052 255.41 314.227 255.387 314.39C255.364 314.553 255.259 314.67 255.072 314.74C254.909 314.81 254.769 314.81 254.652 314.74C254.535 314.67 254.43 314.553 254.337 314.39C253.474 312.243 252.47 310.575 251.327 309.385C250.207 308.172 248.97 307.308 247.617 306.795C246.264 306.282 244.817 306.025 243.277 306.025C240.734 306.025 238.774 306.62 237.397 307.81C236.044 308.977 235.367 310.54 235.367 312.5C235.367 313.62 235.635 314.658 236.172 315.615C236.709 316.572 237.654 317.447 239.007 318.24C240.36 319.033 242.25 319.78 244.677 320.48C247.01 321.157 248.889 321.938 250.312 322.825C251.759 323.688 252.797 324.703 253.427 325.87C254.08 327.037 254.407 328.39 254.407 329.93C254.407 331.423 254.057 332.753 253.357 333.92C252.68 335.087 251.689 336.008 250.382 336.685C249.075 337.362 247.512 337.7 245.692 337.7C244.455 337.7 243.405 337.513 242.542 337.14C241.679 336.79 240.967 336.44 240.407 336.09C239.847 335.74 239.392 335.565 239.042 335.565C238.785 335.565 238.575 335.74 238.412 336.09C238.272 336.417 238.132 336.755 237.992 337.105C237.852 337.455 237.689 337.63 237.502 337.63C237.432 337.63 237.35 337.595 237.257 337.525C237.187 337.478 237.129 337.385 237.082 337.245L235.192 329.545C235.099 329.148 235.052 328.857 235.052 328.67C235.075 328.483 235.169 328.367 235.332 328.32C235.495 328.25 235.624 328.273 235.717 328.39C235.834 328.483 235.939 328.658 236.032 328.915C237.222 331.762 238.704 333.78 240.477 334.97C242.25 336.16 244.047 336.755 245.867 336.755ZM285.534 317.365C285.534 317.832 285.382 318.182 285.079 318.415C284.776 318.648 284.332 318.765 283.749 318.765H261.209V317.89H281.929C282.676 317.89 283.049 317.563 283.049 316.91C283.049 313.643 282.221 311.018 280.564 309.035C278.907 307.028 276.656 306.025 273.809 306.025C271.429 306.025 269.376 306.667 267.649 307.95C265.946 309.21 264.627 310.948 263.694 313.165C262.784 315.358 262.329 317.878 262.329 320.725C262.329 325.578 263.472 329.347 265.759 332.03C268.069 334.713 271.021 336.055 274.614 336.055C277.134 336.055 279.327 335.332 281.194 333.885C283.061 332.438 284.216 330.583 284.659 328.32C284.682 328.133 284.729 328.005 284.799 327.935C284.869 327.865 284.962 327.83 285.079 327.83C285.242 327.83 285.347 327.888 285.394 328.005C285.464 328.098 285.487 328.215 285.464 328.355C285.207 330.128 284.531 331.727 283.434 333.15C282.361 334.55 280.996 335.658 279.339 336.475C277.682 337.292 275.851 337.7 273.844 337.7C271.021 337.7 268.571 337.07 266.494 335.81C264.441 334.527 262.854 332.707 261.734 330.35C260.614 327.993 260.054 325.217 260.054 322.02C260.054 318.893 260.637 316.07 261.804 313.55C262.971 311.007 264.604 308.977 266.704 307.46C268.804 305.92 271.266 305.15 274.089 305.15C276.306 305.15 278.277 305.675 280.004 306.725C281.731 307.752 283.084 309.187 284.064 311.03C285.044 312.85 285.534 314.962 285.534 317.365ZM314.678 335.215V331.645V331.435V308.86C314.678 308.603 314.619 308.417 314.503 308.3C314.409 308.16 314.223 308.09 313.943 308.09H310.408C310.221 308.09 310.081 308.067 309.988 308.02C309.894 307.95 309.848 307.868 309.848 307.775C309.848 307.658 309.883 307.565 309.953 307.495C310.046 307.425 310.198 307.355 310.408 307.285L315.168 305.85C315.471 305.757 315.704 305.698 315.868 305.675C316.054 305.628 316.206 305.605 316.323 305.605C316.509 305.605 316.649 305.663 316.743 305.78C316.836 305.897 316.883 306.06 316.883 306.27V334.55C316.883 334.877 316.999 335.145 317.233 335.355C317.466 335.565 317.793 335.717 318.213 335.81L320.628 336.16C320.884 336.183 321.071 336.23 321.188 336.3C321.304 336.37 321.363 336.475 321.363 336.615C321.363 336.732 321.304 336.825 321.188 336.895C321.094 336.965 320.943 337 320.733 337H316.218C315.658 337 315.261 336.883 315.028 336.65C314.794 336.393 314.678 335.915 314.678 335.215ZM294.168 327.935V308.86C294.168 308.603 294.109 308.417 293.993 308.3C293.899 308.16 293.701 308.09 293.398 308.09H289.863C289.676 308.09 289.536 308.067 289.443 308.02C289.349 307.95 289.303 307.868 289.303 307.775C289.303 307.658 289.338 307.565 289.408 307.495C289.501 307.425 289.653 307.355 289.863 307.285L294.658 305.85C294.961 305.757 295.194 305.698 295.358 305.675C295.544 305.628 295.696 305.605 295.813 305.605C295.999 305.605 296.139 305.663 296.233 305.78C296.326 305.897 296.373 306.06 296.373 306.27V327.585C296.373 330.548 297.096 332.742 298.543 334.165C300.013 335.565 301.891 336.265 304.178 336.265C305.601 336.265 307.094 335.903 308.658 335.18C310.244 334.433 311.983 333.243 313.873 331.61L315.273 330.385L315.868 330.91L314.363 332.205C312.053 334.258 310.046 335.67 308.343 336.44C306.639 337.187 304.948 337.56 303.268 337.56C300.584 337.56 298.391 336.732 296.688 335.075C295.008 333.418 294.168 331.038 294.168 327.935ZM332.258 306.27V334.55C332.258 334.877 332.363 335.145 332.573 335.355C332.806 335.565 333.133 335.717 333.553 335.81L335.968 336.16C336.458 336.207 336.703 336.358 336.703 336.615C336.703 336.872 336.493 337 336.073 337H326.028C325.865 337 325.725 336.965 325.608 336.895C325.515 336.825 325.468 336.732 325.468 336.615C325.468 336.498 325.526 336.417 325.643 336.37C325.76 336.3 325.923 336.242 326.133 336.195L328.723 335.81C329.143 335.717 329.47 335.577 329.703 335.39C329.936 335.18 330.053 334.912 330.053 334.585V308.825C330.053 308.592 329.995 308.405 329.878 308.265C329.785 308.125 329.586 308.055 329.283 308.055H325.783C325.573 308.055 325.421 308.032 325.328 307.985C325.235 307.915 325.188 307.833 325.188 307.74C325.188 307.647 325.223 307.565 325.293 307.495C325.386 307.402 325.538 307.332 325.748 307.285L330.508 305.85C330.811 305.757 331.056 305.698 331.243 305.675C331.43 305.628 331.57 305.605 331.663 305.605C331.873 305.605 332.025 305.663 332.118 305.78C332.211 305.873 332.258 306.037 332.258 306.27ZM331.663 312.395L331.068 311.87L332.573 310.54C334.93 308.487 336.948 307.087 338.628 306.34C340.331 305.57 342.035 305.185 343.738 305.185C346.445 305.185 348.65 306.013 350.353 307.67C352.056 309.327 352.908 311.718 352.908 314.845V334.2C352.908 334.643 353.048 335.017 353.328 335.32C353.631 335.6 354.051 335.787 354.588 335.88L356.653 336.195C357.096 336.265 357.318 336.405 357.318 336.615C357.318 336.872 357.12 337 356.723 337H346.573C346.13 337 345.908 336.872 345.908 336.615C345.908 336.358 346.153 336.207 346.643 336.16L349.198 335.81C349.735 335.717 350.12 335.53 350.353 335.25C350.586 334.947 350.703 334.597 350.703 334.2V315.16C350.703 312.22 349.968 310.05 348.498 308.65C347.051 307.227 345.161 306.515 342.828 306.515C341.405 306.515 339.9 306.877 338.313 307.6C336.726 308.3 334.976 309.49 333.063 311.17L331.663 312.395ZM352.068 312.395L351.508 311.87L353.013 310.54C355.276 308.557 357.19 307.168 358.753 306.375C360.34 305.582 361.938 305.185 363.548 305.185C366.045 305.185 367.958 306.025 369.288 307.705C370.641 309.362 371.54 311.742 371.983 314.845L374.678 334.2C374.725 334.643 374.888 335.017 375.168 335.32C375.448 335.6 375.845 335.787 376.358 335.88L378.423 336.195C378.633 336.218 378.796 336.265 378.913 336.335C379.03 336.405 379.088 336.498 379.088 336.615C379.088 336.732 379.041 336.825 378.948 336.895C378.855 336.965 378.703 337 378.493 337H368.343C367.9 337 367.678 336.872 367.678 336.615C367.678 336.382 367.923 336.23 368.413 336.16L370.968 335.81C371.528 335.717 371.925 335.53 372.158 335.25C372.415 334.947 372.52 334.597 372.473 334.2L369.743 315.16C369.323 312.243 368.553 310.073 367.433 308.65C366.313 307.227 364.715 306.515 362.638 306.515C361.308 306.515 359.908 306.888 358.438 307.635C356.991 308.382 355.335 309.56 353.468 311.17L352.068 312.395ZM393.718 336.755C395.795 336.755 397.463 336.183 398.723 335.04C400.006 333.897 400.648 332.392 400.648 330.525C400.648 329.312 400.356 328.25 399.773 327.34C399.213 326.407 398.256 325.567 396.903 324.82C395.573 324.05 393.753 323.315 391.443 322.615C389.04 321.892 387.115 321.063 385.668 320.13C384.221 319.197 383.171 318.158 382.518 317.015C381.865 315.848 381.538 314.565 381.538 313.165C381.538 310.762 382.39 308.825 384.093 307.355C385.82 305.862 388.165 305.115 391.128 305.115C392.411 305.115 393.496 305.243 394.383 305.5C395.27 305.757 395.993 306.013 396.553 306.27C397.113 306.527 397.545 306.655 397.848 306.655C398.151 306.655 398.408 306.527 398.618 306.27C398.851 306.013 399.061 305.757 399.248 305.5C399.458 305.243 399.656 305.115 399.843 305.115C399.96 305.115 400.053 305.15 400.123 305.22C400.193 305.267 400.263 305.383 400.333 305.57L403.133 313.865C403.226 314.052 403.261 314.227 403.238 314.39C403.215 314.553 403.11 314.67 402.923 314.74C402.76 314.81 402.62 314.81 402.503 314.74C402.386 314.67 402.281 314.553 402.188 314.39C401.325 312.243 400.321 310.575 399.178 309.385C398.058 308.172 396.821 307.308 395.468 306.795C394.115 306.282 392.668 306.025 391.128 306.025C388.585 306.025 386.625 306.62 385.248 307.81C383.895 308.977 383.218 310.54 383.218 312.5C383.218 313.62 383.486 314.658 384.023 315.615C384.56 316.572 385.505 317.447 386.858 318.24C388.211 319.033 390.101 319.78 392.528 320.48C394.861 321.157 396.74 321.938 398.163 322.825C399.61 323.688 400.648 324.703 401.278 325.87C401.931 327.037 402.258 328.39 402.258 329.93C402.258 331.423 401.908 332.753 401.208 333.92C400.531 335.087 399.54 336.008 398.233 336.685C396.926 337.362 395.363 337.7 393.543 337.7C392.306 337.7 391.256 337.513 390.393 337.14C389.53 336.79 388.818 336.44 388.258 336.09C387.698 335.74 387.243 335.565 386.893 335.565C386.636 335.565 386.426 335.74 386.263 336.09C386.123 336.417 385.983 336.755 385.843 337.105C385.703 337.455 385.54 337.63 385.353 337.63C385.283 337.63 385.201 337.595 385.108 337.525C385.038 337.478 384.98 337.385 384.933 337.245L383.043 329.545C382.95 329.148 382.903 328.857 382.903 328.67C382.926 328.483 383.02 328.367 383.183 328.32C383.346 328.25 383.475 328.273 383.568 328.39C383.685 328.483 383.79 328.658 383.883 328.915C385.073 331.762 386.555 333.78 388.328 334.97C390.101 336.16 391.898 336.755 393.718 336.755Z" fill="#F63535"/>
</svg>
